<svg xmlns="http://www.w3.org/2000/svg" width="237.5" height="45" viewBox="0 0 237.5 45"><defs><style>.a{fill:none;stroke:#fff;stroke-miterlimit:10;}.b,.c{fill:#fff;}.b{font-size:5.834px;font-family:Helvetica;}.d{fill:#ba6028;}</style></defs><g transform="translate(-2.1 -2)"><circle class="a" cx="3.8" cy="3.8" r="3.8" transform="translate(231.5 13)"></circle><text class="b" transform="translate(233.816 18.896)"><tspan x="0" y="0">R</tspan></text><path class="c" d="M183.6,11.9l-6.7,23.8h-.4l-6.9-18-7.1,18h-.4l-6.6-23.8h2.4l4.7,17.2,6.7-17.2h.5l6.6,17.2,4.8-17.2Z"></path><path class="c" d="M200.1,35.7h-2.2v-3a8.714,8.714,0,0,1-6.9,3.5,8.32,8.32,0,0,1-6.3-2.7,9.14,9.14,0,0,1-2.5-6.5,9.231,9.231,0,0,1,2.6-6.5,8.32,8.32,0,0,1,6.3-2.7,7.847,7.847,0,0,1,6.8,3.7V18.3h2.2V35.7ZM198,27a7.182,7.182,0,0,0-1.9-5.1,6.355,6.355,0,0,0-4.9-2.1,6.434,6.434,0,0,0-5.9,3.5,7.3,7.3,0,0,0-.9,3.5,7.988,7.988,0,0,0,.9,3.6,6.948,6.948,0,0,0,2.5,2.6,6.81,6.81,0,0,0,9.3-2.5A6.273,6.273,0,0,0,198,27"></path><path class="c" d="M203,12.7v23h2.2V11.3Z"></path><path class="c" d="M209.1,12.7v23h2.2V11.3Z"></path><path class="c" d="M223.5,31a5.123,5.123,0,0,1-5.2,5.2,6.076,6.076,0,0,1-5.1-2.5l1.4-1.6a4.651,4.651,0,0,0,3.6,1.9,3.5,3.5,0,0,0,2.2-.8,2.814,2.814,0,0,0,1-2.1,2.764,2.764,0,0,0-1.2-2.2,17.633,17.633,0,0,0-2.2-1.4,9.629,9.629,0,0,1-2.8-2,4.542,4.542,0,0,1-1.2-3.2,4.6,4.6,0,0,1,1.4-3.4,4.521,4.521,0,0,1,3.4-1.3,6.915,6.915,0,0,1,4.8,2.4l-1.4,1.5a4.834,4.834,0,0,0-3.5-1.7,2.41,2.41,0,0,0-1.8.7,2.289,2.289,0,0,0-.8,1.7c0,1.2,1.1,2.3,3.3,3.5a12.951,12.951,0,0,1,2.9,2,4.79,4.79,0,0,1,1.2,3.3"></path><path class="c" d="M59.7,28.8a6.528,6.528,0,0,1-1,3.6,5.712,5.712,0,0,1-2.6,2.5,9.113,9.113,0,0,1-4.4.8H45.2V11.9h3.7a17.564,17.564,0,0,1,4.6.4,6.305,6.305,0,0,1,3.3,2.1,5.237,5.237,0,0,1,1.3,3.7,5.43,5.43,0,0,1-2.4,4.5,6.614,6.614,0,0,1,4,6.2m-6-10.1q0-2.4-3-2.4H49.6v5h1c2,0,3.1-.9,3.1-2.6m1.6,9.9q0-3.3-4.8-3.3h-.9v6.1h1.1a8.281,8.281,0,0,0,3.1-.4,2.335,2.335,0,0,0,1.5-2.4"></path><path class="c" d="M80.4,27.4v.8H66.5a4.886,4.886,0,0,0,1.6,3,5.244,5.244,0,0,0,3.3,1.1,6.069,6.069,0,0,0,4.2-1.7l3.6,1.7a8.9,8.9,0,0,1-7.8,3.9,9.3,9.3,0,0,1-6.6-2.6A8.967,8.967,0,0,1,62.2,27a9.289,9.289,0,0,1,2.5-6.7,8.384,8.384,0,0,1,6.4-2.7,8.668,8.668,0,0,1,6.6,2.7,9.418,9.418,0,0,1,2.7,7.1M76,24.7a4.63,4.63,0,0,0-1.7-2.4,4.979,4.979,0,0,0-2.9-.9,5.284,5.284,0,0,0-3.2,1,5.42,5.42,0,0,0-1.6,2.3Z"></path><path class="c" d="M116.7,26.9a9.666,9.666,0,0,1-1.2,4.7,8.815,8.815,0,0,1-7.9,4.6,8.32,8.32,0,0,1-6.3-2.7A9.231,9.231,0,0,1,98.7,27a9.016,9.016,0,0,1,3-6.9,8.468,8.468,0,0,1,6-2.4,9.572,9.572,0,0,1,4.6,1.2,8.979,8.979,0,0,1,3.3,3.4,10.388,10.388,0,0,1,1.1,4.6m-4.4,0a4.835,4.835,0,0,0-1.3-3.6,4.25,4.25,0,0,0-3.4-1.4,4.331,4.331,0,0,0-3.4,1.5,5.662,5.662,0,0,0-1.3,3.6,5.219,5.219,0,0,0,1.2,3.6,4.6,4.6,0,0,0,6.8,0,4.9,4.9,0,0,0,1.4-3.7"></path><path class="c" d="M133.9,35.7h-4.3V28a22.045,22.045,0,0,0-.1-3.1,4.249,4.249,0,0,0-1.1-2.7,2.458,2.458,0,0,0-1.7-.5c-1.8,0-3,1.1-3.5,3.4a22.4,22.4,0,0,0-.2,3.6v7.1h-4.3V18.1H123v1.8a7.68,7.68,0,0,1,5.1-2.2,5.661,5.661,0,0,1,4.3,1.8,6.369,6.369,0,0,1,1.5,4.6Z"></path><path class="c" d="M149.3,14v6a7.143,7.143,0,0,0-5.4-2.4h-.4a7.113,7.113,0,0,0-5.5,2.8c-.3.4-.5.7-.8,1.1a10.214,10.214,0,0,0-1.4,5.3,9.659,9.659,0,0,0,2.3,6.4A7.425,7.425,0,0,0,144,36a7.709,7.709,0,0,0,5.3-2.3v1.9h4.3V11.3Zm-1.1,16.6a4.4,4.4,0,0,1-3.5,1.5,4.122,4.122,0,0,1-3.4-1.6,5.662,5.662,0,0,1-1.3-3.6,5.219,5.219,0,0,1,1.2-3.6,4.331,4.331,0,0,1,3.4-1.5,4.192,4.192,0,0,1,3.4,1.5,5.237,5.237,0,0,1,1.3,3.7,4.259,4.259,0,0,1-1.1,3.6"></path><path class="c" d="M98.6,18.1,86.5,45.2H82l4.9-10.8L80.4,18.1h4.4l4.5,11.1,4.9-11.1Z"></path><path class="c" d="M34.5,17.5h-14V3.4A1.367,1.367,0,0,0,19.1,2H3.5A1.367,1.367,0,0,0,2.1,3.4V34.8a1.367,1.367,0,0,0,1.4,1.4H34.4a1.367,1.367,0,0,0,1.4-1.4V18.9a1.288,1.288,0,0,0-1.3-1.4M5.2,6.1a.987.987,0,0,1,.9-1H16.4a.923.923,0,0,1,.9,1V17.5H5.2ZM17.4,33H6.1a.923.923,0,0,1-.9-1V20.7H17.4Zm15.4-1a.987.987,0,0,1-.9,1H20.5V20.7H31.8a.923.923,0,0,1,.9,1V32Z"></path><path class="d" d="M34.3,2H26.2a1.115,1.115,0,0,0-.8,1.9L34,12.6a1.115,1.115,0,0,0,1.9-.8V3.7A1.605,1.605,0,0,0,34.3,2"></path><path class="c" d="M98.3,39.6h1.1a3.475,3.475,0,0,1,1.3.2.9.9,0,0,1,.6.6,1.486,1.486,0,0,1,.2.9,1.689,1.689,0,0,1-.3,1,1.374,1.374,0,0,1-.8.5,3.11,3.11,0,0,1-1.1.1v2.4H98.2V39.6Zm1.1,2.2h.3c.3,0,.5,0,.6-.1a.215.215,0,0,0,.2-.2.367.367,0,0,0,.1-.3.55.55,0,0,0-.3-.5c-.1-.1-.4-.1-.7-.1h-.3v1.2Z"></path><path class="c" d="M102.4,41.1h.9v.5a1,1,0,0,1,.4-.5c.2-.1.3-.2.5-.2a.6.6,0,0,1,.4.1l-.3.9a.367.367,0,0,0-.3-.1c-.2,0-.3.1-.4.3a2.872,2.872,0,0,0-.2,1.2v1.9h-1Z"></path><path class="c" d="M107.2,41a2.016,2.016,0,0,1,1.1.3,3.044,3.044,0,0,1,.8.8,2.167,2.167,0,0,1,0,2.2,3.043,3.043,0,0,1-.8.8,2.172,2.172,0,0,1-2.6-.3,2.111,2.111,0,0,1-.6-1.6,1.865,1.865,0,0,1,.7-1.6A1.678,1.678,0,0,1,107.2,41Zm0,1a1.136,1.136,0,0,0-.8.3,1.5,1.5,0,0,0,0,1.8,1.217,1.217,0,0,0,1.6,0,1.5,1.5,0,0,0,0-1.8A1.135,1.135,0,0,0,107.2,42Z"></path><path class="c" d="M111.3,41.1v.5a2.092,2.092,0,0,1,.6-.4,1.7,1.7,0,0,1,.7-.1,1.974,1.974,0,0,1,1.4.6,2.111,2.111,0,0,1,.6,1.6,2.452,2.452,0,0,1-.6,1.6,1.974,1.974,0,0,1-1.4.6,1.7,1.7,0,0,1-.7-.1,2.092,2.092,0,0,1-.6-.4v2h-1V41.3h1Zm1.1.9a1.136,1.136,0,0,0-.8.3,1.5,1.5,0,0,0,0,1.8,1.135,1.135,0,0,0,.8.3.909.909,0,0,0,.8-.4,1.5,1.5,0,0,0,0-1.8A1.884,1.884,0,0,0,112.4,42Z"></path><path class="c" d="M119.7,43.5h-3.4a1.012,1.012,0,0,0,.4.7,1.135,1.135,0,0,0,.8.3,1.284,1.284,0,0,0,1-.4l.9.4a2.7,2.7,0,0,1-.8.7,1.978,1.978,0,0,1-1.1.2,2.065,2.065,0,0,1-2.2-2.2,2.271,2.271,0,0,1,.6-1.6,2.433,2.433,0,0,1,3.2,0,2.352,2.352,0,0,1,.6,1.7Zm-1.1-.8a2.092,2.092,0,0,0-.4-.6,1.445,1.445,0,0,0-.7-.2,1.884,1.884,0,0,0-.8.2,2.181,2.181,0,0,0-.4.5h2.3Z"></path><path class="c" d="M120.3,41.1h.9v.5a1,1,0,0,1,.4-.5c.2-.1.3-.2.5-.2a.6.6,0,0,1,.4.1l-.3.9a.367.367,0,0,0-.3-.1c-.2,0-.3.1-.4.3a2.872,2.872,0,0,0-.2,1.2v1.9h-1Z"></path><path class="c" d="M125,41.1h1.1l1.1,2.6,1.2-2.6h1.1l-2.6,5.7h-1.1l.9-1.8Z"></path><path class="c" d="M135.3,40.4l-.8.7a1.209,1.209,0,0,0-.9-.6c-.1,0-.3,0-.3.1a.5.5,0,0,0,0,.6,7.509,7.509,0,0,0,.8.7,7.51,7.51,0,0,1,.8.7,2.652,2.652,0,0,1,.5.6,1.483,1.483,0,0,1,.1.7,1.656,1.656,0,0,1-.5,1.2,1.728,1.728,0,0,1-1.3.5,2.016,2.016,0,0,1-1.1-.3,2.361,2.361,0,0,1-.8-.9l.9-.5c.3.5.6.8.9.8.2,0,.3-.1.5-.2a.52.52,0,0,0,.2-.4.6.6,0,0,0-.1-.4l-.6-.6a6.578,6.578,0,0,1-1.2-1.2,1.33,1.33,0,0,1-.3-.8,1.107,1.107,0,0,1,.5-1,1.5,1.5,0,0,1,1.1-.4,1.884,1.884,0,0,1,.8.2C134.7,39.8,135,40,135.3,40.4Z"></path><path class="c" d="M140.5,43.5h-3.4a1.012,1.012,0,0,0,.4.7,1.135,1.135,0,0,0,.8.3,1.284,1.284,0,0,0,1-.4l.9.4a2.7,2.7,0,0,1-.8.7,1.978,1.978,0,0,1-1.1.2,2.065,2.065,0,0,1-2.2-2.2,2.271,2.271,0,0,1,.6-1.6,2.433,2.433,0,0,1,3.2,0,2.352,2.352,0,0,1,.6,1.7Zm-1-.8a2.092,2.092,0,0,0-.4-.6,1.445,1.445,0,0,0-.7-.2,1.884,1.884,0,0,0-.8.2,2.181,2.181,0,0,0-.4.5h2.3Z"></path><path class="c" d="M145.6,39.4c.2,0,.3.1.5.2a.764.764,0,0,1,.2.5c0,.2-.1.3-.2.5a.764.764,0,0,1-.5.2c-.2,0-.3-.1-.5-.2a.764.764,0,0,1-.2-.5c0-.2.1-.3.2-.5A.551.551,0,0,1,145.6,39.4Zm-.5,1.7h1.1v4.2h-1.1Z"></path><path class="c" d="M147.1,41.1h1.1v.4a6.124,6.124,0,0,1,.6-.4,1.268,1.268,0,0,1,.6-.1,1.5,1.5,0,0,1,1.1.4,1.6,1.6,0,0,1,.4,1.1v2.8h-1V43.5a2.508,2.508,0,0,0-.1-1,.52.52,0,0,0-.2-.4c-.1-.1-.2-.1-.4-.1a.764.764,0,0,0-.5.2.6.6,0,0,0-.3.6v2.6h-1.1V41.1Z"></path><path class="c" d="M154.9,41.1h1v3.6a2.537,2.537,0,0,1-.4,1.6,2.06,2.06,0,0,1-1.7.7,2.509,2.509,0,0,1-1-.2,1.794,1.794,0,0,1-.7-.5,1.612,1.612,0,0,1-.4-.7h1.2a1.381,1.381,0,0,0,.4.3,1.268,1.268,0,0,0,.6.1,1.483,1.483,0,0,0,.7-.1,1.38,1.38,0,0,0,.4-.3c.1-.1.1-.4.1-.7a2.092,2.092,0,0,1-.6.4,1.483,1.483,0,0,1-.7.1,1.816,1.816,0,0,1-1.4-.6,2.035,2.035,0,0,1-.6-1.5,2.111,2.111,0,0,1,.6-1.6,1.656,1.656,0,0,1,1.3-.5,1.7,1.7,0,0,1,.7.1,2.092,2.092,0,0,1,.6.4v-.6Zm-1.1.9a1.032,1.032,0,0,0-1.1,1.1,1.4,1.4,0,0,0,.3.9,1.217,1.217,0,0,0,1.6,0,1.222,1.222,0,0,0,.3-.9,1.613,1.613,0,0,0-.3-.9A1.549,1.549,0,0,0,153.8,42Z"></path><path class="c" d="M157.6,44.2a.52.52,0,0,1,.4.2.758.758,0,0,1,.2.4.52.52,0,0,1-.2.4.758.758,0,0,1-.4.2.52.52,0,0,1-.4-.2.758.758,0,0,1-.2-.4.52.52,0,0,1,.2-.4C157.3,44.2,157.4,44.2,157.6,44.2Z"></path><path class="c" d="M164.6,40.4l-.8.7a1.209,1.209,0,0,0-.9-.6c-.1,0-.3,0-.3.1a.5.5,0,0,0,0,.6,7.509,7.509,0,0,0,.8.7,7.51,7.51,0,0,1,.8.7,2.652,2.652,0,0,1,.5.6,1.483,1.483,0,0,1,.1.7,1.656,1.656,0,0,1-.5,1.2,1.728,1.728,0,0,1-1.3.5,2.016,2.016,0,0,1-1.1-.3,2.361,2.361,0,0,1-.8-.9l.9-.5c.3.5.6.8.9.8.2,0,.3-.1.5-.2a.52.52,0,0,0,.2-.4.6.6,0,0,0-.1-.4l-.6-.6a6.578,6.578,0,0,1-1.2-1.2,1.33,1.33,0,0,1-.3-.8,1.107,1.107,0,0,1,.5-1,1.5,1.5,0,0,1,1.1-.4,1.884,1.884,0,0,1,.8.2C164,39.8,164.3,40,164.6,40.4Z"></path><path class="c" d="M166,39.4c.2,0,.3.1.5.2a.764.764,0,0,1,.2.5c0,.2-.1.3-.2.5a.764.764,0,0,1-.5.2c-.2,0-.3-.1-.5-.2a.764.764,0,0,1-.2-.5c0-.2.1-.3.2-.5S165.8,39.4,166,39.4Zm-.5,1.7h1.1v4.2h-1.1Z"></path><path class="c" d="M167.5,41.1h1.1v.5a2.092,2.092,0,0,1,.6-.4,1.7,1.7,0,0,1,.7-.1,1.445,1.445,0,0,1,.7.2,1.024,1.024,0,0,1,.5.6l.6-.6a1.7,1.7,0,0,1,1.6,0,1.205,1.205,0,0,1,.5.5,3.11,3.11,0,0,1,.1,1.1v2.5h-1.1V43.3a2.151,2.151,0,0,0-.2-1,.55.55,0,0,0-.5-.3c-.2,0-.3.1-.5.2a1.38,1.38,0,0,0-.3.4,2.219,2.219,0,0,0-.1.9v1.9h-1.1v-2a1.719,1.719,0,0,0-.1-.8c-.1-.2-.1-.3-.2-.4s-.2-.1-.4-.1-.3.1-.5.2c-.1.1-.2.3-.3.4a1.974,1.974,0,0,0-.1.9v1.9h-1.1V41.1Z"></path><path class="c" d="M176,41.1v.5a2.092,2.092,0,0,1,.6-.4,1.7,1.7,0,0,1,.7-.1,1.974,1.974,0,0,1,1.4.6,2.111,2.111,0,0,1,.6,1.6,2.452,2.452,0,0,1-.6,1.6,1.974,1.974,0,0,1-1.4.6,1.7,1.7,0,0,1-.7-.1,2.092,2.092,0,0,1-.6-.4v2h-1V41.3h1Zm1.1.9a1.135,1.135,0,0,0-.8.3,1.5,1.5,0,0,0,0,1.8,1.135,1.135,0,0,0,.8.3.909.909,0,0,0,.8-.4,1.5,1.5,0,0,0,0-1.8A1.884,1.884,0,0,0,177.1,42Z"></path><path class="c" d="M182.4,39.4c.2,0,.3.1.5.2a.764.764,0,0,1,.2.5c0,.2-.1.3-.2.5a.764.764,0,0,1-.5.2c-.2,0-.3-.1-.5-.2a.764.764,0,0,1-.2-.5c0-.2.1-.3.2-.5A.551.551,0,0,1,182.4,39.4Zm-.5,1.7H183v4.2h-1.1Z"></path><path class="c" d="M183.4,41.1h.4v-1a.55.55,0,0,1,.3-.5,1.445,1.445,0,0,1,.7-.2.952.952,0,0,1,.7.2v.8c-.2,0-.3-.1-.4-.1a.367.367,0,0,0-.3.1.349.349,0,0,0-.1.2v.5h.7V42h-.7v3.3h-1.1V42h-.4v-.9Z"></path><path class="c" d="M186.5,39.4c.2,0,.3.1.5.2a.764.764,0,0,1,.2.5c0,.2-.1.3-.2.5a.764.764,0,0,1-.5.2c-.2,0-.3-.1-.5-.2a.764.764,0,0,1-.2-.5c0-.2.1-.3.2-.5A.646.646,0,0,1,186.5,39.4Zm-.5,1.7h1.1v4.2H186Z"></path><path class="c" d="M192.2,43.5h-3.4a1.012,1.012,0,0,0,.4.7,1.135,1.135,0,0,0,.8.3,1.284,1.284,0,0,0,1-.4l.9.4a2.7,2.7,0,0,1-.8.7,1.978,1.978,0,0,1-1.1.2,2.065,2.065,0,0,1-2.2-2.2,2.271,2.271,0,0,1,.6-1.6,2.433,2.433,0,0,1,3.2,0,2.352,2.352,0,0,1,.6,1.7Zm-1-.8a2.092,2.092,0,0,0-.4-.6,1.445,1.445,0,0,0-.7-.2,1.884,1.884,0,0,0-.8.2,2.181,2.181,0,0,0-.4.5h2.3Z"></path><path class="c" d="M199.1,44.2a.52.52,0,0,1,.4.2.758.758,0,0,1,.2.4.52.52,0,0,1-.2.4.758.758,0,0,1-.4.2.52.52,0,0,1-.4-.2.758.758,0,0,1-.2-.4.52.52,0,0,1,.2-.4C198.8,44.2,198.9,44.2,199.1,44.2Z"></path><path class="c" d="M124.2,41.1V39.5h0l-1,.7v.9h-.6V42h.6v3.3h1V42h.7v-.9Z"></path><path class="c" d="M181.1,39.5l-1.1.6v5.2h1.1Z"></path><path class="c" d="M141.3,40.1v5.2h1V39.5Z"></path><path class="c" d="M144.2,39.5l-1,.6v5.2h1Z"></path><path class="c" d="M196.2,40.1v1.4a2.092,2.092,0,0,0-.6-.4,1.7,1.7,0,0,0-.7-.1,1.974,1.974,0,0,0-1.4.6,2.111,2.111,0,0,0-.6,1.6,2.452,2.452,0,0,0,.6,1.6,1.974,1.974,0,0,0,1.4.6,1.7,1.7,0,0,0,.7-.1,2.092,2.092,0,0,0,.6-.4v.4h1.1V39.5Zm-.3,4a1.135,1.135,0,0,1-.8.3.909.909,0,0,1-.8-.4,1.5,1.5,0,0,1,0-1.8,1.217,1.217,0,0,1,1.6,0,1.222,1.222,0,0,1,.3.9A1.327,1.327,0,0,1,195.9,44.1Z"></path></g></svg>